<svg width="512" height="512" viewBox="0 0 512 512" fill="none" xmlns="http://www.w3.org/2000/svg">
<g clip-path="url(#clip0)">
<rect width="512" height="512" fill="#2A2A2E"/>
<path d="M275.758 352.08C271.342 352.08 267.118 350.736 263.086 348.048C259.054 345.552 255.694 342.288 253.006 338.256C250.51 334.224 249.262 330.192 249.262 326.16C249.262 321.552 251.182 316.656 255.022 311.472C258.862 306.288 263.374 301.2 268.558 296.208C273.934 291.024 278.638 286.608 282.67 282.96H163.726C152.782 282.96 145.006 282.096 140.398 280.368C135.79 278.64 132.142 275.76 129.454 271.728C126.766 267.888 125.422 262.512 125.422 255.6C125.422 248.688 126.67 243.312 129.166 239.472C131.854 235.632 135.502 232.752 140.11 230.832C144.718 229.104 152.59 228.24 163.726 228.24H282.67L268.558 214.704C260.686 207.024 255.502 201.168 253.006 197.136C250.51 192.912 249.262 188.88 249.262 185.04C249.262 181.008 250.51 176.976 253.006 172.944C255.502 168.912 258.766 165.648 262.798 163.152C267.022 160.464 271.342 159.12 275.758 159.12C279.598 159.12 283.726 160.368 288.142 162.864C292.558 165.168 297.742 169.2 303.694 174.96L386.638 255.6L305.422 334.512C298.51 341.04 292.846 345.552 288.43 348.048C284.014 350.736 279.79 352.08 275.758 352.08Z" fill="#50FA7B"/>
</g>
<defs>
<clipPath id="clip0">
<rect width="512" height="512" fill="white"/>
</clipPath>
</defs>
</svg>
