<svg width="512" height="512" viewBox="0 0 512 512" fill="none" xmlns="http://www.w3.org/2000/svg">
<g clip-path="url(#clip0)">
<rect width="512" height="512" fill="#2A2A2E"/>
<path d="M303.183 322.496C316.239 322.496 327.951 317.696 338.319 308.096C349.071 298.112 357.135 288.704 362.511 279.872C367.887 271.04 373.455 260.48 379.215 248.192C385.359 235.904 391.695 221.504 398.223 204.992L353.295 188.864C333.711 238.784 317.007 268.736 303.183 278.72C297.039 274.112 292.047 268.736 288.207 262.592C284.751 256.064 280.911 249.344 276.687 242.432C272.463 235.52 268.239 228.992 264.015 222.848C259.791 216.32 254.991 210.368 249.615 204.992C244.623 199.232 238.671 194.624 231.759 191.168C224.847 187.328 217.359 185.408 209.295 185.408C195.855 185.408 183.951 190.4 173.583 200.384C163.215 209.984 155.343 219.2 149.967 228.032C144.591 236.864 138.831 247.424 132.687 259.712C126.543 272 120.207 286.4 113.679 302.912L158.607 319.04C178.575 269.504 195.471 239.552 209.295 229.184C215.055 233.792 219.663 239.36 223.119 245.888C226.959 252.032 230.991 258.752 235.215 266.048C239.823 272.96 244.239 279.68 248.463 286.208C252.687 292.352 257.295 298.304 262.287 304.064C267.663 309.44 273.615 313.856 280.143 317.312C287.055 320.768 294.735 322.496 303.183 322.496Z" fill="#50FA7B"/>
</g>
<defs>
<clipPath id="clip0">
<rect width="512" height="512" fill="white"/>
</clipPath>
</defs>
</svg>
